<svg id="Ebene_1" data-name="Ebene 1" xmlns="http://www.w3.org/2000/svg" viewBox="0 0 410.59 351.31"><defs><style>.cls-1{fill:#282b31;}.cls-2{fill:#f6c14f;}</style></defs><title>Logo-Coffee</title><path class="cls-1" d="M134.84,187.54H335.45a15.92,15.92,0,0,1,15.92,15.92v31.63A116.22,116.22,0,0,1,235.14,351.31h0A116.22,116.22,0,0,1,118.92,235.08V203.46a15.92,15.92,0,0,1,15.92-15.92Z"/><path class="cls-2" d="M268.94,279.83c9.14,22.5,18.3,45.08,30.11,66.3,10.14,18.22,22.16,35.32,34.16,52.37L371,452.18c-38.38,9.33-81.52-5.11-106.55-35.66-18.24-22.26-26.63-51.06-30.66-79.55-2.83-20-3.58-40.44-.88-60.49,1.73-12.88,5.88-47.2,20.54-51.43C259.57,242.22,261.68,261.94,268.94,279.83Z" transform="translate(-231.19 -104.14)"/><path class="cls-2" d="M385.52,442C349.84,365.26,279,304.32,264.05,221.05c22.73-1.12,46.14-1.66,67.07,7.29,10.48,4.48,19.82,11.29,28.32,18.89a178.82,178.82,0,0,1,38.4,49,145.2,145.2,0,0,1,14.7,39.72,174.57,174.57,0,0,1,2.9,32.93c.11,14.15-.75,28.5-5.17,41.95A55.36,55.36,0,0,1,385.52,442Z" transform="translate(-231.19 -104.14)"/><path class="cls-2" d="M490,104.15c1.7.28,2.17,3.83,5.09,8.81a106.93,106.93,0,0,0,6,9.2,89.21,89.21,0,0,1,8.69,14.37,38.41,38.41,0,0,1,3.05,11.23,34.71,34.71,0,0,1-1.32,13.15c-2.56,8.65-7.73,16-13.38,22.26-2.87,3.18-5.86,6.12-8.84,9s-6.17,5.74-9.45,8.57-6.69,5.65-10.21,8.4-7,5.29-10.05,7.85a51.47,51.47,0,0,0-7.61,7.43,17.37,17.37,0,0,0-3.53,6.67,12.15,12.15,0,0,0,.25,6.39,22.27,22.27,0,0,0,3.7,7c3.48,4.7,8.32,8.43,13.48,11.59a74.38,74.38,0,0,0,15.29,7.08,103,103,0,0,0,25,4.81c6.24.52,10.05.83,10.48,2.41s-2.66,4.07-9.33,6.36-17,4-29.78,2.09a75.78,75.78,0,0,1-20.35-6c-6.91-3.17-14.54-7.68-20.89-14.92a41.79,41.79,0,0,1-8.12-13.31,33.55,33.55,0,0,1-1.57-17.89A38.42,38.42,0,0,1,434,210.53a68,68,0,0,1,11-11.1c3.76-3.11,7.51-5.8,10.76-8.26s6.57-5,9.73-7.57,6.21-5.07,9.17-7.59,5.8-5,8.27-7.35c5-4.74,8.74-9.47,10.65-13.84s2.05-8.18,1-12.9-3.2-9.43-4.85-13.95a51,51,0,0,1-3.2-12.64,24.5,24.5,0,0,1,0-5,18,18,0,0,1,.91-3.61C488.33,104.82,489.17,104,490,104.15Z" transform="translate(-231.19 -104.14)"/><path class="cls-1" d="M596,310.74a45.78,45.78,0,1,0,45.78,45.78A45.78,45.78,0,0,0,596,310.74Zm1.39,74a28.23,28.23,0,1,1,28.23-28.23A28.22,28.22,0,0,1,597.39,384.75Z" transform="translate(-231.19 -104.14)"/></svg>