<?xml version="1.0" standalone="no"?>
<!DOCTYPE svg PUBLIC "-//W3C//DTD SVG 20010904//EN"
 "http://www.w3.org/TR/2001/REC-SVG-20010904/DTD/svg10.dtd">
<svg version="1.0" xmlns="http://www.w3.org/2000/svg"
 width="822.000000pt" height="822.000000pt" viewBox="0 0 822.000000 822.000000"
 preserveAspectRatio="xMidYMid meet">
<metadata>
Created by potrace 1.11, written by Peter Selinger 2001-2013
</metadata>
<g transform="translate(0.000000,822.000000) scale(0.100000,-0.100000)"
fill="#000000" stroke="none">
<path d="M5158 7610 c-30 -18 -51 -104 -45 -184 7 -89 17 -152 29 -186 3 -8
31 -84 62 -168 81 -220 96 -308 68 -407 -14 -49 -48 -125 -61 -135 -4 -3 -15
-18 -25 -35 -26 -40 -32 -46 -106 -123 -91 -93 -317 -288 -460 -397 -29 -22
-61 -48 -72 -57 -10 -10 -22 -18 -27 -18 -5 0 -11 -4 -13 -8 -1 -4 -34 -31
-73 -60 -108 -80 -124 -93 -200 -158 -101 -88 -180 -180 -232 -269 -213 -366
-82 -782 332 -1057 117 -78 319 -164 465 -198 25 -6 52 -12 60 -14 8 -2 40 -7
70 -11 30 -4 64 -9 75 -11 24 -5 212 -5 275 0 42 4 74 9 128 21 89 20 117 27
127 34 6 3 12 6 15 6 13 0 127 61 141 74 59 58 16 78 -216 96 -69 5 -116 12
-220 30 -11 1 -63 13 -115 26 -52 13 -98 23 -102 23 -3 1 -10 4 -14 9 -4 4
-14 7 -23 7 -9 1 -34 9 -56 20 -22 11 -44 19 -48 20 -16 0 -192 92 -195 101
-2 5 -8 9 -14 9 -23 0 -139 91 -210 165 -35 36 -102 129 -104 144 0 3 -6 20
-13 36 -44 105 -6 215 116 340 52 52 69 67 143 125 25 19 50 39 57 45 20 16
34 28 103 80 62 47 87 68 176 143 181 155 388 361 464 462 14 18 31 39 38 46
6 7 12 16 12 20 0 4 11 22 25 40 14 18 25 37 25 42 0 5 9 21 21 36 11 15 22
32 23 39 2 6 8 26 15 42 33 81 52 152 55 210 3 35 6 68 8 72 7 13 -17 177 -28
195 -3 4 -7 18 -9 30 -11 56 -109 226 -229 397 -54 77 -108 169 -136 231 -24
54 -48 90 -59 90 -3 0 -14 -5 -23 -10z"/>
<path d="M997 5294 c-1 -1 -75 -4 -165 -7 -90 -3 -166 -7 -168 -10 -3 -3 4
-50 16 -104 11 -54 23 -109 26 -123 2 -14 7 -32 10 -40 3 -8 14 -46 24 -85 39
-145 143 -434 207 -575 54 -119 228 -465 235 -468 4 -2 8 -7 8 -12 0 -12 123
-224 132 -228 5 -2 8 -8 8 -13 0 -6 28 -54 61 -107 34 -53 71 -114 82 -134 12
-21 24 -38 29 -38 4 0 8 -7 8 -15 0 -8 5 -15 10 -15 6 0 10 -4 10 -10 0 -5 38
-67 85 -136 47 -69 85 -130 85 -135 0 -5 5 -9 10 -9 6 0 15 -10 20 -22 5 -13
29 -50 53 -83 24 -33 65 -91 92 -130 26 -38 73 -106 104 -150 30 -44 59 -81
63 -83 5 -2 8 -10 8 -17 0 -7 3 -15 8 -17 4 -1 26 -30 48 -63 23 -33 61 -88
85 -123 24 -35 49 -71 54 -80 6 -9 13 -19 16 -22 3 -3 25 -34 49 -70 24 -36
47 -66 52 -68 4 -2 8 -8 8 -12 0 -8 39 -67 150 -230 51 -76 181 -284 189 -305
2 -5 7 -12 10 -15 8 -6 111 -178 111 -186 0 -3 16 -29 35 -59 19 -30 32 -55
29 -55 -4 0 -2 -6 4 -13 16 -20 50 -82 124 -229 l69 -138 42 26 c45 29 138
105 174 142 12 13 24 19 27 13 9 -13 95 -71 107 -71 5 0 9 -4 9 -9 0 -5 8 -11
18 -15 9 -3 31 -15 47 -26 36 -24 305 -160 305 -154 0 3 12 -2 28 -9 26 -14
170 -65 201 -72 9 -2 62 -15 118 -29 95 -24 179 -40 278 -53 62 -8 463 -8 525
0 47 7 113 17 130 22 3 0 28 5 55 10 60 10 55 9 135 30 36 9 70 18 77 19 7 1
16 5 19 9 4 4 14 7 23 7 64 0 554 234 569 272 2 4 10 8 18 8 8 0 14 5 14 10 0
6 6 10 13 10 6 0 27 14 46 30 18 17 36 30 40 30 3 0 22 14 41 30 19 17 55 47
79 67 82 70 291 285 291 300 0 2 8 13 18 23 10 11 40 53 67 92 27 40 52 75 55
78 4 3 29 44 56 92 30 52 54 84 60 79 21 -21 172 -101 189 -101 4 0 21 -7 38
-15 88 -40 318 -62 442 -40 269 46 504 203 642 430 32 53 89 184 99 228 1 4 3
9 4 12 16 32 32 206 26 284 -9 113 -12 131 -38 226 -10 37 -86 204 -98 215 -3
3 -25 31 -48 63 -50 67 -129 145 -187 185 -22 15 -42 30 -45 33 -7 9 -173 90
-190 93 -8 2 -22 6 -30 9 -103 41 -341 53 -465 23 -11 -3 -33 -8 -50 -11 l-30
-6 -1 77 c-3 126 -44 214 -127 275 -94 69 71 63 -1857 65 -960 2 -1750 3
-1755 3 -6 1 -19 16 -29 34 -65 111 -243 371 -291 423 -5 6 -26 30 -45 54
-123 149 -322 348 -461 461 -24 19 -51 42 -61 52 -10 9 -22 17 -26 17 -5 0
-17 8 -28 18 -10 10 -34 27 -51 37 -18 11 -33 23 -33 27 0 4 -4 8 -9 8 -5 0
-38 17 -72 38 -75 46 -215 112 -235 112 -8 0 -14 4 -14 10 0 5 -3 9 -7 8 -5
-1 -47 10 -95 25 -91 29 -156 44 -268 63 -19 3 -44 8 -55 10 -79 14 -508 37
-518 28z m6456 -2173 c56 -13 164 -57 182 -74 7 -7 23 -19 35 -27 98 -65 192
-213 217 -340 17 -87 0 -273 -28 -307 -6 -7 -9 -13 -6 -13 4 0 -8 -26 -25 -57
-69 -126 -165 -209 -309 -266 -166 -67 -413 -20 -552 103 -53 47 -52 41 -22
140 9 30 18 63 20 73 2 10 6 26 9 35 3 9 8 33 11 52 3 19 8 42 11 51 5 18 13
70 20 134 12 118 16 182 19 295 1 69 3 128 4 131 1 6 82 41 146 65 11 4 40 9
65 11 25 3 46 6 47 7 6 6 113 -3 156 -13z"/>
<path d="M389 5174 c-69 -43 -155 -163 -197 -274 -24 -65 -77 -243 -87 -294
-2 -12 -4 -21 -5 -21 -2 0 -8 -33 -14 -85 -3 -25 -10 -63 -16 -86 -5 -22 -12
-67 -16 -99 -3 -32 -7 -66 -9 -76 -2 -9 -6 -39 -10 -66 -4 -26 -8 -59 -10 -72
-26 -163 -25 -740 1 -918 2 -21 6 -56 8 -78 6 -67 16 -147 26 -200 5 -27 12
-66 14 -85 3 -19 8 -45 10 -56 2 -12 7 -39 10 -60 6 -39 23 -112 52 -229 8
-33 17 -68 19 -78 2 -10 7 -27 10 -37 3 -10 8 -27 10 -37 2 -10 9 -31 14 -48
6 -16 25 -70 42 -120 16 -49 34 -99 39 -110 5 -11 28 -65 51 -120 40 -93 53
-119 114 -231 39 -70 50 -89 55 -94 3 -3 26 -36 51 -75 86 -130 217 -279 339
-385 35 -30 70 -62 79 -70 43 -40 344 -232 371 -236 3 0 41 -17 85 -38 75 -36
310 -119 365 -130 14 -3 34 -7 45 -10 79 -18 116 -25 155 -30 25 -3 56 -8 70
-11 13 -2 76 -7 140 -11 63 -3 117 -8 119 -9 1 -2 13 0 25 5 13 4 29 4 39 -1
9 -6 17 -6 17 -2 0 4 21 8 48 9 113 2 342 39 342 55 0 8 -64 102 -97 144 -5 6
-17 24 -27 40 -11 17 -24 35 -30 42 -6 7 -47 65 -91 128 -44 64 -106 152 -137
195 -32 43 -58 83 -58 88 0 6 -4 12 -8 14 -7 2 -195 264 -227 315 -5 9 -16 24
-23 32 -23 30 -256 366 -277 399 -5 10 -13 19 -16 22 -13 11 -149 220 -149
229 0 5 -4 11 -9 13 -5 2 -41 55 -80 118 -39 63 -75 120 -80 126 -5 6 -28 46
-52 88 -24 43 -53 94 -65 115 -11 20 -38 70 -60 111 -21 41 -42 77 -46 78 -5
2 -8 8 -8 13 0 5 -33 75 -72 157 -40 81 -73 149 -73 152 -1 3 -8 21 -17 40
-45 100 -149 337 -153 350 -4 11 -19 47 -36 85 -9 22 -31 76 -49 120 -17 44
-38 94 -45 110 -26 58 -107 269 -111 290 -2 11 -8 31 -14 45 -5 14 -19 61 -30
105 -24 93 -22 84 -50 200 -77 326 -122 494 -141 528 -5 10 -7 22 -4 26 11 20
-33 16 -66 -5z"/>
</g>
</svg>
